<?xml version="1.0" encoding="iso-8859-1"?>
<!-- Generator: Adobe Illustrator 19.0.0, SVG Export Plug-In . SVG Version: 6.00 Build 0)  -->
<svg version="1.1" id="Layer_1" xmlns="http://www.w3.org/2000/svg" xmlns:xlink="http://www.w3.org/1999/xlink" x="0px" y="0px"
	 viewBox="0 0 512 512" style="enable-background:new 0 0 512 512;" xml:space="preserve">
<g>
	<polygon style="fill:#FED070;" points="0,512 512,512 512,476.69 0,476.69 	"/>
	<g>
		<polygon style="fill:#E64C3C;" points="35.31,44.138 79.448,44.138 79.448,0 35.31,0 		"/>
		<polygon style="fill:#E64C3C;" points="114.759,44.138 158.897,44.138 158.897,0 114.759,0 		"/>
		<polygon style="fill:#E64C3C;" points="194.207,44.138 238.345,44.138 238.345,0 194.207,0 		"/>
		<polygon style="fill:#E64C3C;" points="273.655,44.138 317.793,44.138 317.793,0 273.655,0 		"/>
		<polygon style="fill:#E64C3C;" points="353.103,44.138 397.241,44.138 397.241,0 353.103,0 		"/>
		<polygon style="fill:#E64C3C;" points="432.552,44.138 476.69,44.138 476.69,0 432.552,0 		"/>
		<polygon style="fill:#E64C3C;" points="35.31,123.586 79.448,123.586 79.448,79.448 35.31,79.448 		"/>
		<polygon style="fill:#E64C3C;" points="114.759,123.586 158.897,123.586 158.897,79.448 114.759,79.448 		"/>
		<polygon style="fill:#E64C3C;" points="194.207,123.586 238.345,123.586 238.345,79.448 194.207,79.448 		"/>
		<polygon style="fill:#E64C3C;" points="273.655,123.586 317.793,123.586 317.793,79.448 273.655,79.448 		"/>
		<polygon style="fill:#E64C3C;" points="353.103,123.586 397.241,123.586 397.241,79.448 353.103,79.448 		"/>
		<polygon style="fill:#E64C3C;" points="432.552,123.586 476.69,123.586 476.69,79.448 432.552,79.448 		"/>
		<polygon style="fill:#E64C3C;" points="35.31,361.931 79.448,361.931 79.448,317.793 35.31,317.793 		"/>
		<polygon style="fill:#E64C3C;" points="114.759,361.931 158.897,361.931 158.897,317.793 114.759,317.793 		"/>
	</g>
	<g>
		<polygon style="fill:#5ACE6E;" points="194.207,361.931 238.345,361.931 238.345,317.793 194.207,317.793 		"/>
		<polygon style="fill:#5ACE6E;" points="273.655,361.931 317.793,361.931 317.793,317.793 273.655,317.793 		"/>
	</g>
	<g>
		<polygon style="fill:#E64C3C;" points="353.103,361.931 397.241,361.931 397.241,317.793 353.103,317.793 		"/>
		<polygon style="fill:#E64C3C;" points="432.552,361.931 476.69,361.931 476.69,317.793 432.552,317.793 		"/>
		<polygon style="fill:#E64C3C;" points="35.31,441.379 79.448,441.379 79.448,397.241 35.31,397.241 		"/>
		<polygon style="fill:#E64C3C;" points="114.759,441.379 158.897,441.379 158.897,397.241 114.759,397.241 		"/>
		<polygon style="fill:#E64C3C;" points="194.207,441.379 238.345,441.379 238.345,397.241 194.207,397.241 		"/>
		<polygon style="fill:#E64C3C;" points="273.655,441.379 317.793,441.379 317.793,397.241 273.655,397.241 		"/>
		<polygon style="fill:#E64C3C;" points="353.103,441.379 397.241,441.379 397.241,397.241 353.103,397.241 		"/>
		<polygon style="fill:#E64C3C;" points="432.552,441.379 476.69,441.379 476.69,397.241 432.552,397.241 		"/>
		<polygon style="fill:#E64C3C;" points="114.759,203.034 158.897,203.034 158.897,158.897 114.759,158.897 		"/>
		<polygon style="fill:#E64C3C;" points="194.207,203.034 238.345,203.034 238.345,158.897 194.207,158.897 		"/>
		<polygon style="fill:#E64C3C;" points="273.655,203.034 317.793,203.034 317.793,158.897 273.655,158.897 		"/>
		<polygon style="fill:#E64C3C;" points="353.103,203.034 397.241,203.034 397.241,158.897 353.103,158.897 		"/>
		<polygon style="fill:#E64C3C;" points="114.759,282.483 158.897,282.483 158.897,238.345 114.759,238.345 		"/>
	</g>
	<g>
		<polygon style="fill:#5ACE6E;" points="194.207,282.483 238.345,282.483 238.345,238.345 194.207,238.345 		"/>
		<polygon style="fill:#5ACE6E;" points="273.655,282.483 317.793,282.483 317.793,238.345 273.655,238.345 		"/>
	</g>
	<polygon style="fill:#E64C3C;" points="353.103,282.483 397.241,282.483 397.241,238.345 353.103,238.345 	"/>
</g>
<g>
</g>
<g>
</g>
<g>
</g>
<g>
</g>
<g>
</g>
<g>
</g>
<g>
</g>
<g>
</g>
<g>
</g>
<g>
</g>
<g>
</g>
<g>
</g>
<g>
</g>
<g>
</g>
<g>
</g>
</svg>
